<svg width="400" height="445" viewBox="0 0 400 445" fill="none" xmlns="http://www.w3.org/2000/svg">
<path d="M200.901 298.277H28.6628C27.8172 298.276 27.0065 297.942 26.4085 297.348C25.8106 296.755 25.4742 295.95 25.4733 295.111V252.7C25.4742 251.861 25.8106 251.056 26.4085 250.462C27.0065 249.869 27.8172 249.535 28.6628 249.534H200.901C201.746 249.535 202.557 249.869 203.155 250.462C203.753 251.056 204.089 251.861 204.09 252.7V295.111C204.089 295.951 203.753 296.755 203.155 297.349C202.557 297.942 201.746 298.276 200.901 298.277ZM28.6628 250.8C28.1554 250.801 27.6688 251.001 27.31 251.357C26.9512 251.713 26.7494 252.196 26.749 252.7V295.111C26.7494 295.615 26.9512 296.098 27.31 296.454C27.6688 296.81 28.1554 297.011 28.6628 297.011H200.901C201.408 297.011 201.895 296.81 202.254 296.454C202.612 296.098 202.814 295.615 202.815 295.111V252.7C202.814 252.196 202.612 251.713 202.254 251.357C201.895 251.001 201.408 250.801 200.901 250.8H28.6628Z" fill="#E6E6E6"/>
<path d="M50.9893 287.203C58.3879 287.203 64.3855 281.249 64.3855 273.905C64.3855 266.561 58.3879 260.607 50.9893 260.607C43.5908 260.607 37.5931 266.561 37.5931 273.905C37.5931 281.249 43.5908 287.203 50.9893 287.203Z" fill="#E6E6E6"/>
<path d="M81.9285 265.04C81.3428 265.05 80.7844 265.288 80.3736 265.702C79.9629 266.117 79.7327 266.675 79.7327 267.257C79.7327 267.838 79.9629 268.396 80.3736 268.811C80.7844 269.225 81.3428 269.463 81.9285 269.473H187.185C187.777 269.484 188.349 269.261 188.776 268.854C189.203 268.446 189.449 267.887 189.46 267.299C189.472 266.712 189.248 266.143 188.837 265.72C188.426 265.296 187.863 265.052 187.271 265.041L187.258 265.04C187.234 265.04 187.209 265.04 187.185 265.04H81.9285Z" fill="#E6E6E6"/>
<path d="M81.9285 278.338C81.3428 278.348 80.7844 278.586 80.3736 279C79.9629 279.415 79.7327 279.973 79.7327 280.554C79.7327 281.136 79.9629 281.694 80.3736 282.109C80.7844 282.523 81.3428 282.761 81.9285 282.771H187.185C187.776 282.779 188.346 282.554 188.771 282.145C189.195 281.736 189.439 281.177 189.449 280.591C189.458 280.004 189.233 279.437 188.822 279.015C188.412 278.593 187.849 278.349 187.258 278.338C187.234 278.338 187.209 278.338 187.185 278.338H81.9285Z" fill="#E6E6E6"/>
<path d="M200.901 369.199H28.6628C27.8172 369.198 27.0065 368.864 26.4085 368.271C25.8106 367.677 25.4742 366.872 25.4733 366.033V323.622C25.4742 322.783 25.8106 321.978 26.4085 321.384C27.0065 320.791 27.8172 320.457 28.6628 320.456H200.901C201.746 320.457 202.557 320.791 203.155 321.384C203.753 321.978 204.089 322.783 204.09 323.622V366.034C204.089 366.873 203.753 367.677 203.155 368.271C202.557 368.864 201.746 369.198 200.901 369.199ZM28.6628 321.722C28.1554 321.723 27.6688 321.923 27.31 322.279C26.9512 322.635 26.7494 323.118 26.749 323.622V366.034C26.7494 366.537 26.9512 367.02 27.31 367.376C27.6688 367.733 28.1554 367.933 28.6628 367.933H200.901C201.408 367.933 201.895 367.733 202.254 367.376C202.612 367.02 202.814 366.537 202.815 366.034V323.622C202.814 323.118 202.612 322.635 202.254 322.279C201.895 321.923 201.408 321.723 200.901 321.722H28.6628Z" fill="#E6E6E6"/>
<path d="M50.9893 358.125C58.3879 358.125 64.3855 352.172 64.3855 344.827C64.3855 337.483 58.3879 331.53 50.9893 331.53C43.5908 331.53 37.5931 337.483 37.5931 344.827C37.5931 352.172 43.5908 358.125 50.9893 358.125Z" fill="#E6E6E6"/>
<path d="M81.9285 335.962C81.3428 335.972 80.7844 336.21 80.3736 336.624C79.9629 337.039 79.7327 337.597 79.7327 338.179C79.7327 338.76 79.9629 339.318 80.3736 339.733C80.7844 340.147 81.3428 340.385 81.9285 340.395H187.185C187.776 340.403 188.346 340.178 188.771 339.769C189.195 339.361 189.439 338.802 189.449 338.215C189.458 337.628 189.233 337.061 188.822 336.639C188.412 336.217 187.849 335.974 187.258 335.962C187.234 335.962 187.209 335.962 187.185 335.962H81.9285Z" fill="#E6E6E6"/>
<path d="M81.9285 349.26C81.3428 349.27 80.7844 349.508 80.3736 349.922C79.9629 350.337 79.7327 350.895 79.7327 351.476C79.7327 352.058 79.9629 352.616 80.3736 353.031C80.7844 353.445 81.3428 353.683 81.9285 353.693H187.185C187.776 353.701 188.346 353.476 188.771 353.067C189.195 352.659 189.439 352.1 189.449 351.513C189.458 350.926 189.233 350.359 188.822 349.937C188.412 349.515 187.849 349.271 187.258 349.26C187.234 349.26 187.209 349.26 187.185 349.26H81.9285Z" fill="#E6E6E6"/>
<path d="M194.102 283.005C207.71 283.005 218.741 272.054 218.741 258.547C218.741 245.039 207.71 234.089 194.102 234.089C180.494 234.089 169.463 245.039 169.463 258.547C169.463 272.054 180.494 283.005 194.102 283.005Z" fill="white"/>
<path d="M185.545 269.55C185.502 269.55 185.46 269.55 185.418 269.549H172.174C170.494 269.523 168.891 268.842 167.712 267.653C166.533 266.464 165.872 264.863 165.871 263.195C165.87 261.527 166.53 259.925 167.709 258.735C168.887 257.546 170.489 256.863 172.169 256.836H185.424C185.489 256.834 185.559 256.834 185.63 256.836C187.32 256.859 188.933 257.544 190.116 258.743C191.299 259.942 191.957 261.557 191.946 263.235C191.935 264.913 191.255 266.519 190.056 267.702C188.857 268.885 187.235 269.549 185.545 269.55Z" fill="#002F6C"/>
<path d="M212.702 327.573C212.545 327.331 212.415 327.073 212.314 326.803L209.133 318.349C208.763 317.361 208.803 316.268 209.243 315.31C209.684 314.351 210.49 313.605 211.484 313.235L282.47 286.923C283.465 286.556 284.566 286.595 285.532 287.032C286.497 287.469 287.249 288.269 287.621 289.256L290.801 297.711C290.985 298.2 291.071 298.72 291.052 299.241C291.033 299.763 290.911 300.276 290.693 300.751C290.475 301.226 290.165 301.653 289.78 302.009C289.395 302.365 288.944 302.642 288.451 302.824L217.466 329.136C216.611 329.452 215.673 329.47 214.807 329.186C213.941 328.902 213.198 328.333 212.702 327.573Z" fill="#002F6C"/>
<path d="M282.244 284.738L253.377 296.165C252.468 296.436 251.698 297.045 251.229 297.865C250.759 298.685 250.626 299.652 250.856 300.567L254.206 313.881C254.338 314.407 254.587 314.898 254.933 315.317C255.279 315.736 255.714 316.074 256.207 316.307C256.701 316.539 257.24 316.66 257.786 316.661C258.332 316.662 258.872 316.543 259.366 316.312L288.312 302.787C289.229 302.446 289.972 301.757 290.379 300.873C290.786 299.989 290.823 298.98 290.483 298.069L287.003 286.894C286.659 285.982 285.965 285.243 285.073 284.839C284.18 284.435 283.163 284.399 282.244 284.738Z" fill="#2F2E41"/>
<path d="M339.192 365.975C338.161 366.075 337.12 365.874 336.242 365.403C335.364 364.932 334.7 364.22 334.362 363.385L306.249 294.013C306.054 293.531 305.972 293.022 306.008 292.514C306.044 292.005 306.198 291.508 306.46 291.05C306.722 290.593 307.087 290.183 307.535 289.846C307.983 289.508 308.504 289.249 309.07 289.083L318.848 286.211C319.99 285.877 321.242 285.942 322.328 286.392C323.413 286.842 324.245 287.641 324.64 288.613L352.753 357.986C353.145 358.958 353.068 360.023 352.539 360.947C352.011 361.871 351.073 362.579 349.932 362.916L340.153 365.787C339.842 365.879 339.519 365.942 339.192 365.975Z" fill="#002F6C"/>
<path d="M324.122 287.178L333.606 316.555C333.973 317.425 333.99 318.401 333.651 319.282C333.313 320.163 332.646 320.881 331.788 321.287L319.308 327.192C318.815 327.425 318.276 327.547 317.73 327.549C317.184 327.55 316.644 327.432 316.15 327.202C315.655 326.972 315.218 326.636 314.87 326.218C314.522 325.801 314.272 325.312 314.137 324.786L306.234 294.013C305.916 293.094 305.978 292.086 306.406 291.212C306.835 290.338 307.595 289.668 308.52 289.349L319.419 284.904C320.347 284.588 321.363 284.649 322.245 285.075C323.126 285.502 323.802 286.258 324.122 287.178Z" fill="#2F2E41"/>
<path d="M295.409 443.915H286.317C285.256 443.914 284.238 443.494 283.488 442.749C282.737 442.004 282.315 440.994 282.313 439.94V364.723C282.315 363.669 282.737 362.659 283.488 361.914C284.238 361.169 285.256 360.75 286.317 360.749H295.409C296.47 360.75 297.488 361.169 298.238 361.914C298.989 362.659 299.411 363.669 299.412 364.723V439.94C299.411 440.994 298.989 442.004 298.238 442.749C297.488 443.494 296.47 443.914 295.409 443.915Z" fill="#2F2E41"/>
<path d="M313.39 443.915H304.299C303.237 443.914 302.22 443.494 301.469 442.749C300.718 442.004 300.296 440.994 300.295 439.94V364.723C300.296 363.669 300.718 362.659 301.469 361.914C302.22 361.169 303.237 360.75 304.299 360.749H313.39C314.452 360.75 315.47 361.169 316.22 361.914C316.971 362.659 317.393 363.669 317.394 364.723V439.94C317.393 440.994 316.971 442.004 316.22 442.749C315.47 443.494 314.452 443.914 313.39 443.915Z" fill="#2F2E41"/>
<path d="M320.883 373.566H279.574C278.431 373.565 277.335 373.113 276.527 372.311C275.718 371.508 275.264 370.42 275.262 369.286V302.672C275.262 296.099 277.893 289.795 282.575 285.148C287.257 280.5 293.607 277.889 300.229 277.889C306.85 277.889 313.2 280.5 317.882 285.148C322.564 289.795 325.195 296.099 325.195 302.672V369.286C325.193 370.42 324.739 371.508 323.93 372.311C323.122 373.113 322.026 373.565 320.883 373.566Z" fill="#CCCCCC"/>
<path d="M327.101 389.861H306.158V272.368L306.547 272.473C312.445 274.08 317.649 277.563 321.362 282.388C325.075 287.214 327.091 293.114 327.101 299.186V389.861Z" fill="#2F2E41"/>
<path d="M292.597 389.861H271.654V299.186C271.664 293.114 273.68 287.214 277.393 282.388C281.106 277.563 286.31 274.08 292.208 272.473L292.597 272.368V389.861Z" fill="#2F2E41"/>
<path d="M299.916 264.11C318.123 264.11 332.882 249.459 332.882 231.385C332.882 213.312 318.123 198.661 299.916 198.661C281.709 198.661 266.95 213.312 266.95 231.385C266.95 249.459 281.709 264.11 299.916 264.11Z" fill="#002F6C"/>
<path d="M337.187 223.851C337.187 223.851 339.035 173.101 315.012 189.61C315.012 189.61 301.152 143.446 267.274 212.54L257.418 222.323C257.418 222.323 301.768 216.208 343.039 235.163L337.187 223.851Z" fill="#2F2E41"/>
<path d="M300.419 247.592C298.382 247.536 295.848 247.465 293.896 246.05C293.314 245.611 292.837 245.051 292.496 244.41C292.156 243.768 291.96 243.061 291.924 242.336C291.889 241.822 291.974 241.306 292.173 240.829C292.372 240.353 292.679 239.928 293.07 239.589C294.09 238.734 295.579 238.533 297.184 239.001L295.521 226.94L296.742 226.774L298.697 240.954L297.677 240.489C296.496 239.951 294.874 239.677 293.866 240.523C293.618 240.744 293.425 241.019 293.302 241.326C293.179 241.633 293.129 241.964 293.156 242.293C293.185 242.832 293.332 243.359 293.585 243.836C293.838 244.314 294.192 244.732 294.622 245.062C296.142 246.164 298.162 246.306 300.453 246.369L300.419 247.592Z" fill="#2F2E41"/>
<path d="M289.485 227.98H282.85V229.203H289.485V227.98Z" fill="#2F2E41"/>
<path d="M310.428 227.98H303.793V229.203H310.428V227.98Z" fill="#2F2E41"/>
<path d="M226.414 330.692C225.525 331.102 224.508 331.144 223.588 330.809C222.668 330.475 221.919 329.791 221.506 328.909L200.248 283.426C199.836 282.544 199.794 281.535 200.131 280.621C200.468 279.708 201.157 278.964 202.046 278.555C202.935 278.145 203.951 278.103 204.872 278.438C205.792 278.772 206.541 279.456 206.953 280.338L228.211 325.82C228.624 326.703 228.666 327.712 228.329 328.626C227.992 329.54 227.303 330.283 226.414 330.692Z" fill="#3F3D56"/>
<path d="M204.574 281.753C203.92 281.753 203.293 281.495 202.831 281.036C202.369 280.578 202.11 279.956 202.11 279.307V248.152H171.311C170.658 248.152 170.031 247.894 169.569 247.436C169.107 246.977 168.847 246.355 168.847 245.706C168.847 245.058 169.107 244.435 169.569 243.977C170.031 243.518 170.658 243.26 171.311 243.26H204.574C205.227 243.26 205.854 243.518 206.316 243.977C206.778 244.435 207.038 245.058 207.038 245.706V279.307C207.038 279.956 206.778 280.578 206.316 281.036C205.854 281.495 205.227 281.753 204.574 281.753Z" fill="#002F6C"/>
<path d="M205.156 285.21C199.852 287.653 193.936 288.48 188.158 287.586C182.38 286.692 176.999 284.117 172.696 280.187C168.392 276.257 165.359 271.149 163.98 265.507C162.601 259.866 162.938 253.946 164.949 248.495C166.959 243.044 170.553 238.308 175.276 234.884C179.998 231.461 185.637 229.504 191.48 229.262C197.323 229.02 203.106 230.504 208.1 233.525C213.093 236.546 217.072 240.969 219.533 246.234C222.824 253.297 223.159 261.366 220.464 268.673C217.768 275.98 212.263 281.927 205.156 285.21ZM183.38 238.619C179.401 240.451 176.06 243.413 173.777 247.131C171.495 250.848 170.374 255.154 170.557 259.504C170.74 263.854 172.218 268.052 174.804 271.568C177.391 275.084 180.97 277.76 185.088 279.257C189.206 280.754 193.68 281.005 197.942 279.978C202.204 278.951 206.064 276.693 209.033 273.489C212.002 270.285 213.947 266.279 214.623 261.977C215.299 257.676 214.674 253.272 212.828 249.322C210.348 244.031 205.854 239.933 200.334 237.926C194.813 235.919 188.716 236.169 183.38 238.619Z" fill="#3F3D56"/>
</svg>
